<svg width="471" height="470" viewBox="0 0 471 470" fill="none" xmlns="http://www.w3.org/2000/svg">
<path d="M147.686 63.0987L128.561 25.5789C106.493 36.8363 86.4466 51.4843 69.1069 68.8389L98.9085 98.6407C113.438 84.1116 129.885 72.1849 147.686 63.0987Z" fill="#02A9B2"/>
<path d="M265.449 425.506L272.037 467.13C296.857 463.234 320.383 455.456 341.976 444.422L322.851 406.902C304.902 416.077 285.57 422.368 265.449 425.506Z" fill="#426567"/>
<path d="M235.276 427.856C225.074 427.856 214.992 427.053 205.103 425.506L198.515 467.13C210.501 469.019 222.769 470 235.276 470C247.782 470 260.066 469.019 272.037 467.13L265.449 425.506C255.545 427.053 245.477 427.856 235.276 427.856Z" fill="#38D0D8"/>
<path d="M147.686 406.902L128.562 444.422C150.154 455.441 173.695 463.219 198.5 467.13L205.088 425.506C184.982 422.368 165.65 416.077 147.686 406.902Z" fill="#38D0D8"/>
<path d="M371.629 371.36C357.1 385.889 340.638 397.816 322.852 406.902L341.976 444.422C364.045 433.164 384.091 418.516 401.431 401.162L371.629 371.36Z" fill="#426567"/>
<path d="M407.171 147.418L444.69 128.293C433.433 106.225 418.785 86.1782 401.43 68.8384L371.629 98.6402C386.173 113.169 398.084 129.617 407.171 147.418Z" fill="#73C5BB"/>
<path d="M428.124 235.007C428.124 245.209 427.321 255.292 425.774 265.181L467.398 271.769C469.287 259.783 470.269 247.514 470.269 235.007C470.269 222.501 469.287 210.217 467.398 198.246L425.774 204.834C427.321 214.723 428.124 224.806 428.124 235.007Z" fill="#04939B"/>
<path d="M98.9085 371.36L69.1069 401.162C86.4614 418.516 106.508 433.15 128.561 444.422L147.686 406.902C129.885 397.816 113.438 385.904 98.9085 371.36Z" fill="#38D0D8"/>
<path d="M407.17 147.417C416.346 165.382 422.621 184.714 425.774 204.835L467.398 198.247C463.502 173.427 455.724 149.901 444.69 128.308L407.17 147.417Z" fill="#04939B"/>
<path d="M408.553 319.818L446.207 338.674C456.423 317.914 463.68 295.429 467.398 271.769L425.774 265.182C422.785 284.261 416.985 302.642 408.553 319.818Z" fill="#04939B"/>
<path d="M371.629 371.361L401.43 401.162C419.573 383.019 434.742 361.917 446.192 338.659L408.539 319.802C399.319 338.674 386.916 356.088 371.629 371.361Z" fill="#426567"/>
<path d="M235.276 42.1601C245.477 42.1601 255.56 42.9632 265.449 44.5098L272.037 2.88503C260.051 0.981506 247.782 0 235.276 0C222.769 0 210.486 0.981506 198.515 2.87016L205.103 44.4949C214.992 42.9483 225.074 42.1601 235.276 42.1601Z" fill="#02A9B2"/>
<path d="M205.103 44.4946L198.5 2.86987C173.68 6.76615 150.154 14.5438 128.562 25.5783L147.686 63.0986C165.65 53.923 184.982 47.6474 205.103 44.4946Z" fill="#02A9B2"/>
<path d="M322.866 63.0986L341.99 25.5783C320.398 14.5587 296.857 6.78103 272.052 2.86987L265.464 44.4946C285.57 47.6474 304.902 53.923 322.866 63.0986Z" fill="#73C5BB"/>
<path d="M371.629 98.6407L401.431 68.8389C384.076 51.4843 364.03 36.8512 341.976 25.5789L322.852 63.0987C340.653 72.1849 357.1 84.1116 371.629 98.6407Z" fill="#73C5BB"/>
<path d="M98.9091 371.36C84.3801 356.831 72.4535 340.384 63.3673 322.583L25.8477 341.707C37.105 363.776 51.753 383.822 69.1075 401.162L98.9091 371.36Z" fill="#38D0D8"/>
<path d="M98.9082 98.6398L69.0918 68.8232C51.7819 86.1332 37.1488 106.135 25.9062 128.159L63.5598 147.016C72.6311 129.378 84.4833 113.065 98.9082 98.6398Z" fill="#02A9B2"/>
<path d="M44.7637 265.182L3.13965 271.769C7.03586 296.589 14.8134 320.115 25.8477 341.708L63.3674 322.584C54.192 304.634 47.9164 285.302 44.7637 265.182Z" fill="#529195"/>
<path d="M42.428 235.008C42.428 224.806 43.231 214.724 44.7776 204.834L3.13867 198.232C1.25004 210.218 0.268555 222.486 0.268555 235.008C0.268555 247.529 1.25004 259.798 3.13867 271.769L44.7627 265.181C43.2161 255.277 42.428 245.209 42.428 235.008Z" fill="#4CB9BF"/>
<path d="M63.5607 147.031L25.9072 128.16C14.8432 149.797 7.05073 173.368 3.13965 198.232L44.7637 204.819C47.9312 184.565 54.2811 165.099 63.5607 147.031Z" fill="#4CB9BF"/>
</svg>
