<svg width="470" height="438" viewBox="0 0 470 438" fill="none" xmlns="http://www.w3.org/2000/svg">
<path d="M147.517 58.6866L128.415 23.7903C106.371 34.2606 86.3482 47.8844 69.0283 64.0255L98.7959 91.7434C113.308 78.2302 129.737 67.1375 147.517 58.6866Z" fill="#02A9B2"/>
<path d="M265.146 395.753L271.727 434.467C296.518 430.843 320.017 423.609 341.586 413.347L322.483 378.45C304.554 386.984 285.244 392.835 265.146 395.753Z" fill="#426567"/>
<path d="M235.007 397.939C224.817 397.939 214.746 397.192 204.868 395.753L198.288 434.467C210.26 436.223 222.515 437.136 235.007 437.136C247.5 437.136 259.769 436.223 271.727 434.467L265.146 395.753C255.253 397.192 245.197 397.939 235.007 397.939Z" fill="#38D0D8"/>
<path d="M147.517 378.45L128.415 413.347C149.983 423.595 173.497 430.829 198.274 434.467L204.854 395.753C184.771 392.835 165.461 386.984 147.517 378.45Z" fill="#38D0D8"/>
<path d="M371.205 345.394C356.693 358.907 340.249 370 322.484 378.45L341.586 413.347C363.63 402.876 383.653 389.253 400.973 373.112L371.205 345.394Z" fill="#426567"/>
<path d="M406.706 137.11L444.183 119.323C432.939 98.7969 418.307 80.1522 400.973 64.0249L371.205 91.7429C385.732 105.256 397.63 120.554 406.706 137.11Z" fill="#73C5BB"/>
<path d="M427.635 218.575C427.635 228.063 426.833 237.441 425.289 246.638L466.865 252.766C468.752 241.618 469.732 230.207 469.732 218.575C469.732 206.943 468.752 195.518 466.865 184.384L425.289 190.512C426.833 199.709 427.635 209.087 427.635 218.575Z" fill="#04939B"/>
<path d="M98.7959 345.394L69.0283 373.112C86.363 389.253 106.386 402.863 128.415 413.347L147.517 378.45C129.737 370 113.308 358.921 98.7959 345.394Z" fill="#38D0D8"/>
<path d="M406.706 137.11C415.871 153.818 422.139 171.799 425.288 190.512L466.865 184.385C462.973 161.301 455.205 139.419 444.183 119.336L406.706 137.11Z" fill="#04939B"/>
<path d="M408.087 297.455L445.697 314.993C455.902 295.685 463.151 274.772 466.864 252.767L425.288 246.639C422.302 264.385 416.509 281.48 408.087 297.455Z" fill="#04939B"/>
<path d="M371.205 345.394L400.973 373.112C419.095 356.238 434.246 336.611 445.683 314.979L408.073 297.441C398.863 314.993 386.475 331.189 371.205 345.394Z" fill="#426567"/>
<path d="M235.007 39.2122C245.197 39.2122 255.268 39.9591 265.146 41.3975L271.727 2.6833C259.754 0.912876 247.5 0 235.007 0C222.515 0 210.246 0.912876 198.288 2.66947L204.868 41.3837C214.746 39.9452 224.817 39.2122 235.007 39.2122Z" fill="#02A9B2"/>
<path d="M204.869 41.3834L198.274 2.66919C173.482 6.29303 149.983 13.5269 128.415 23.7898L147.517 58.6866C165.461 50.1526 184.771 44.3157 204.869 41.3834Z" fill="#02A9B2"/>
<path d="M322.498 58.6866L341.6 23.7898C320.032 13.5407 296.518 6.30686 271.741 2.66919L265.161 41.3834C285.244 44.3157 304.554 50.1526 322.498 58.6866Z" fill="#73C5BB"/>
<path d="M371.205 91.7434L400.973 64.0255C383.638 47.8844 363.615 34.2744 341.586 23.7903L322.484 58.6866C340.264 67.1375 356.693 78.2302 371.205 91.7434Z" fill="#73C5BB"/>
<path d="M98.7964 345.394C84.284 331.881 72.371 316.583 63.2952 300.027L25.8184 317.814C37.0629 338.34 51.6941 356.984 69.0288 373.112L98.7964 345.394Z" fill="#38D0D8"/>
<path d="M98.7956 91.7427L69.0132 64.011C51.723 80.1106 37.1066 98.7137 25.877 119.198L63.4875 136.736C72.5485 120.332 84.3871 105.159 98.7956 91.7427Z" fill="#02A9B2"/>
<path d="M44.7128 246.639L3.13623 252.767C7.028 275.851 14.7967 297.732 25.8184 317.815L63.2952 300.028C54.1303 283.334 47.8619 265.353 44.7128 246.639Z" fill="#529195"/>
<path d="M42.3798 218.575C42.3798 209.087 43.1819 199.71 44.7268 190.512L3.13539 184.371C1.24892 195.519 0.268555 206.93 0.268555 218.575C0.268555 230.221 1.24892 241.632 3.13539 252.766L44.7119 246.639C43.1671 237.427 42.3798 228.064 42.3798 218.575Z" fill="#4CB9BF"/>
<path d="M63.4883 136.75L25.8778 119.199C14.8264 139.323 7.04285 161.245 3.13623 184.371L44.7127 190.498C47.8767 171.66 54.2193 153.555 63.4883 136.75Z" fill="#4CB9BF"/>
</svg>
